<mxfile host="app.diagrams.net" agent="Mozilla/5.0 (Windows NT 10.0; Win64; x64; rv:130.0) Gecko/20100101 Firefox/130.0" version="24.7.16">
  <diagram name="Page-1" id="AM6U1227SiyUS_jFqa7l">
    <mxGraphModel dx="1368" dy="803" grid="0" gridSize="10" guides="1" tooltips="1" connect="1" arrows="1" fold="1" page="1" pageScale="1" pageWidth="850" pageHeight="1100" math="0" shadow="0">
      <root>
        <mxCell id="0" />
        <mxCell id="1" parent="0" />
        <mxCell id="s9EOSlfGhYIO4utFcJ4W-54" style="rounded=0;orthogonalLoop=1;jettySize=auto;html=1;entryX=1;entryY=0.5;entryDx=0;entryDy=0;" edge="1" parent="1">
          <mxGeometry relative="1" as="geometry">
            <mxPoint x="616.7800000000002" y="947" as="sourcePoint" />
            <mxPoint x="447.1400000000049" y="948.5" as="targetPoint" />
          </mxGeometry>
        </mxCell>
        <mxCell id="s9EOSlfGhYIO4utFcJ4W-55" value="Mythic Agent" style="edgeLabel;html=1;align=center;verticalAlign=middle;resizable=0;points=[];" vertex="1" connectable="0" parent="s9EOSlfGhYIO4utFcJ4W-54">
          <mxGeometry x="-0.104" y="1" relative="1" as="geometry">
            <mxPoint as="offset" />
          </mxGeometry>
        </mxCell>
        <mxCell id="s9EOSlfGhYIO4utFcJ4W-1" value="Mythic C2" style="outlineConnect=0;dashed=0;verticalLabelPosition=bottom;verticalAlign=top;align=center;html=1;shape=mxgraph.aws3.traditional_server;fillColor=#f8cecc;strokeColor=#b85450;" vertex="1" parent="1">
          <mxGeometry x="620.53" y="907" width="46.5" height="63" as="geometry" />
        </mxCell>
        <mxCell id="s9EOSlfGhYIO4utFcJ4W-2" value="SSH Server" style="outlineConnect=0;dashed=0;verticalLabelPosition=bottom;verticalAlign=top;align=center;html=1;shape=mxgraph.aws3.traditional_server;fillColor=#7D7C7C;gradientColor=none;" vertex="1" parent="1">
          <mxGeometry x="846" y="564" width="46.5" height="63" as="geometry" />
        </mxCell>
        <mxCell id="s9EOSlfGhYIO4utFcJ4W-3" value="Windows Server" style="outlineConnect=0;dashed=0;verticalLabelPosition=bottom;verticalAlign=top;align=center;html=1;shape=mxgraph.aws3.traditional_server;fillColor=#7D7C7C;gradientColor=none;" vertex="1" parent="1">
          <mxGeometry x="646.13" y="97" width="46.5" height="63" as="geometry" />
        </mxCell>
        <mxCell id="s9EOSlfGhYIO4utFcJ4W-8" style="edgeStyle=orthogonalEdgeStyle;rounded=0;orthogonalLoop=1;jettySize=auto;html=1;" edge="1" parent="1" source="s9EOSlfGhYIO4utFcJ4W-4" target="s9EOSlfGhYIO4utFcJ4W-6">
          <mxGeometry relative="1" as="geometry" />
        </mxCell>
        <mxCell id="s9EOSlfGhYIO4utFcJ4W-10" value="RDP Brute Force" style="edgeLabel;html=1;align=center;verticalAlign=middle;resizable=0;points=[];" vertex="1" connectable="0" parent="s9EOSlfGhYIO4utFcJ4W-8">
          <mxGeometry x="0.0184" y="4" relative="1" as="geometry">
            <mxPoint y="1" as="offset" />
          </mxGeometry>
        </mxCell>
        <mxCell id="s9EOSlfGhYIO4utFcJ4W-4" value="Attacker Laptop &lt;br&gt;Kali Linux" style="verticalLabelPosition=bottom;html=1;verticalAlign=top;align=center;strokeColor=#b85450;fillColor=#f8cecc;shape=mxgraph.azure.computer;pointerEvents=1;" vertex="1" parent="1">
          <mxGeometry x="115.13" y="108" width="50" height="45" as="geometry" />
        </mxCell>
        <mxCell id="s9EOSlfGhYIO4utFcJ4W-9" style="edgeStyle=orthogonalEdgeStyle;rounded=0;orthogonalLoop=1;jettySize=auto;html=1;" edge="1" parent="1" source="s9EOSlfGhYIO4utFcJ4W-6" target="s9EOSlfGhYIO4utFcJ4W-3">
          <mxGeometry relative="1" as="geometry" />
        </mxCell>
        <mxCell id="s9EOSlfGhYIO4utFcJ4W-6" value="" style="image;aspect=fixed;perimeter=ellipsePerimeter;html=1;align=center;shadow=0;dashed=0;spacingTop=3;image=img/lib/active_directory/internet_cloud.svg;" vertex="1" parent="1">
          <mxGeometry x="348.13" y="91" width="119.05" height="75" as="geometry" />
        </mxCell>
        <mxCell id="s9EOSlfGhYIO4utFcJ4W-7" value="Phase 1&lt;br&gt;Initial Access" style="text;html=1;align=center;verticalAlign=middle;resizable=0;points=[];autosize=1;strokeColor=none;fillColor=none;" vertex="1" parent="1">
          <mxGeometry x="359.97" y="28" width="89" height="41" as="geometry" />
        </mxCell>
        <mxCell id="s9EOSlfGhYIO4utFcJ4W-12" value="Internet" style="text;html=1;align=center;verticalAlign=middle;resizable=0;points=[];autosize=1;strokeColor=none;fillColor=none;fontStyle=1;fontColor=#FFFFFF;" vertex="1" parent="1">
          <mxGeometry x="378.65999999999997" y="114" width="58" height="26" as="geometry" />
        </mxCell>
        <mxCell id="s9EOSlfGhYIO4utFcJ4W-13" value="Windows Server" style="outlineConnect=0;dashed=0;verticalLabelPosition=bottom;verticalAlign=top;align=center;html=1;shape=mxgraph.aws3.traditional_server;fillColor=#7D7C7C;gradientColor=none;" vertex="1" parent="1">
          <mxGeometry x="650" y="222.58" width="46.5" height="63" as="geometry" />
        </mxCell>
        <mxCell id="s9EOSlfGhYIO4utFcJ4W-14" style="edgeStyle=orthogonalEdgeStyle;rounded=0;orthogonalLoop=1;jettySize=auto;html=1;entryX=0;entryY=0.5;entryDx=0;entryDy=0;" edge="1" source="s9EOSlfGhYIO4utFcJ4W-16" parent="1" target="s9EOSlfGhYIO4utFcJ4W-25">
          <mxGeometry relative="1" as="geometry">
            <mxPoint x="332.75" y="253" as="targetPoint" />
            <Array as="points">
              <mxPoint x="251" y="253" />
              <mxPoint x="251" y="254" />
            </Array>
          </mxGeometry>
        </mxCell>
        <mxCell id="s9EOSlfGhYIO4utFcJ4W-30" value="Successful Authentication" style="edgeLabel;html=1;align=center;verticalAlign=middle;resizable=0;points=[];fontStyle=1;fontColor=#009900;" vertex="1" connectable="0" parent="s9EOSlfGhYIO4utFcJ4W-14">
          <mxGeometry x="0.0397" relative="1" as="geometry">
            <mxPoint as="offset" />
          </mxGeometry>
        </mxCell>
        <mxCell id="s9EOSlfGhYIO4utFcJ4W-16" value="Attacker Laptop &lt;br&gt;Kali Linux" style="verticalLabelPosition=bottom;html=1;verticalAlign=top;align=center;strokeColor=#b85450;fillColor=#f8cecc;shape=mxgraph.azure.computer;pointerEvents=1;" vertex="1" parent="1">
          <mxGeometry x="109" y="224.14999999999998" width="50" height="45" as="geometry" />
        </mxCell>
        <mxCell id="s9EOSlfGhYIO4utFcJ4W-17" style="edgeStyle=orthogonalEdgeStyle;rounded=0;orthogonalLoop=1;jettySize=auto;html=1;exitX=1;exitY=0.5;exitDx=0;exitDy=0;" edge="1" target="s9EOSlfGhYIO4utFcJ4W-13" parent="1" source="s9EOSlfGhYIO4utFcJ4W-25">
          <mxGeometry relative="1" as="geometry">
            <mxPoint x="451.75" y="253" as="sourcePoint" />
          </mxGeometry>
        </mxCell>
        <mxCell id="s9EOSlfGhYIO4utFcJ4W-25" value="" style="image;aspect=fixed;perimeter=ellipsePerimeter;html=1;align=center;shadow=0;dashed=0;spacingTop=3;image=img/lib/active_directory/internet_cloud.svg;" vertex="1" parent="1">
          <mxGeometry x="348" y="224.14999999999998" width="95" height="59.85" as="geometry" />
        </mxCell>
        <mxCell id="s9EOSlfGhYIO4utFcJ4W-18" value="Internet" style="text;html=1;align=center;verticalAlign=middle;resizable=0;points=[];autosize=1;fontStyle=1;fontColor=#FFFFFF;" vertex="1" parent="1">
          <mxGeometry x="363.28" y="238" width="58" height="26" as="geometry" />
        </mxCell>
        <mxCell id="s9EOSlfGhYIO4utFcJ4W-31" value="Phase 2&lt;br&gt;Discovery" style="text;html=1;align=center;verticalAlign=middle;resizable=0;points=[];autosize=1;strokeColor=none;fillColor=none;" vertex="1" parent="1">
          <mxGeometry x="365.03" y="343" width="73" height="41" as="geometry" />
        </mxCell>
        <mxCell id="s9EOSlfGhYIO4utFcJ4W-32" value="&lt;div&gt;&lt;br&gt;&lt;/div&gt;&lt;div&gt;Windows Server&lt;br&gt;&lt;/div&gt;" style="outlineConnect=0;dashed=0;verticalLabelPosition=bottom;verticalAlign=top;align=center;html=1;shape=mxgraph.aws3.traditional_server;fillColor=#7D7C7C;gradientColor=none;" vertex="1" parent="1">
          <mxGeometry x="634.5299999999999" y="399" width="46.5" height="63" as="geometry" />
        </mxCell>
        <mxCell id="s9EOSlfGhYIO4utFcJ4W-33" style="edgeStyle=orthogonalEdgeStyle;rounded=0;orthogonalLoop=1;jettySize=auto;html=1;" edge="1" source="s9EOSlfGhYIO4utFcJ4W-35" parent="1">
          <mxGeometry relative="1" as="geometry">
            <mxPoint x="336.53" y="430.5" as="targetPoint" />
          </mxGeometry>
        </mxCell>
        <mxCell id="s9EOSlfGhYIO4utFcJ4W-34" value="Discovery&lt;br&gt;via RDP" style="edgeLabel;html=1;align=center;verticalAlign=middle;resizable=0;points=[];" vertex="1" connectable="0" parent="s9EOSlfGhYIO4utFcJ4W-33">
          <mxGeometry x="0.0184" y="4" relative="1" as="geometry">
            <mxPoint y="1" as="offset" />
          </mxGeometry>
        </mxCell>
        <mxCell id="s9EOSlfGhYIO4utFcJ4W-35" value="Attacker Laptop &lt;br&gt;Kali Linux" style="verticalLabelPosition=bottom;html=1;verticalAlign=top;align=center;strokeColor=#b85450;fillColor=#f8cecc;shape=mxgraph.azure.computer;pointerEvents=1;" vertex="1" parent="1">
          <mxGeometry x="103.53" y="410" width="50" height="45" as="geometry" />
        </mxCell>
        <mxCell id="s9EOSlfGhYIO4utFcJ4W-36" style="edgeStyle=orthogonalEdgeStyle;rounded=0;orthogonalLoop=1;jettySize=auto;html=1;" edge="1" target="s9EOSlfGhYIO4utFcJ4W-32" parent="1">
          <mxGeometry relative="1" as="geometry">
            <mxPoint x="455.5799999999997" y="430.5" as="sourcePoint" />
          </mxGeometry>
        </mxCell>
        <mxCell id="s9EOSlfGhYIO4utFcJ4W-37" value="" style="image;aspect=fixed;perimeter=ellipsePerimeter;html=1;align=center;shadow=0;dashed=0;spacingTop=3;image=img/lib/active_directory/internet_cloud.svg;" vertex="1" parent="1">
          <mxGeometry x="339.56" y="391.5" width="119.05" height="75" as="geometry" />
        </mxCell>
        <mxCell id="s9EOSlfGhYIO4utFcJ4W-38" value="Internet" style="text;html=1;align=center;verticalAlign=middle;resizable=0;points=[];autosize=1;strokeColor=none;fillColor=none;fontStyle=1;fontColor=#FFFFFF;" vertex="1" parent="1">
          <mxGeometry x="367.05999999999995" y="416" width="58" height="26" as="geometry" />
        </mxCell>
        <mxCell id="s9EOSlfGhYIO4utFcJ4W-40" value="whoami&lt;br&gt;&lt;div&gt;ipconfig&lt;/div&gt;&lt;div&gt;net user&lt;/div&gt;&lt;div&gt;net group&lt;br&gt;&lt;/div&gt;" style="text;html=1;align=center;verticalAlign=middle;resizable=0;points=[];autosize=1;strokeColor=none;fillColor=none;" vertex="1" parent="1">
          <mxGeometry x="366.59" y="471" width="69" height="70" as="geometry" />
        </mxCell>
        <mxCell id="s9EOSlfGhYIO4utFcJ4W-41" value="Phase 3&lt;br&gt;Defense Evasion" style="text;html=1;align=center;verticalAlign=middle;resizable=0;points=[];autosize=1;strokeColor=none;fillColor=none;" vertex="1" parent="1">
          <mxGeometry x="346.09" y="575" width="110" height="41" as="geometry" />
        </mxCell>
        <mxCell id="s9EOSlfGhYIO4utFcJ4W-47" value="" style="image;aspect=fixed;perimeter=ellipsePerimeter;html=1;align=center;shadow=0;dashed=0;spacingTop=3;image=img/lib/active_directory/internet_cloud.svg;" vertex="1" parent="1">
          <mxGeometry x="331.48" y="909.5" width="119.05" height="75" as="geometry" />
        </mxCell>
        <mxCell id="s9EOSlfGhYIO4utFcJ4W-48" value="Internet" style="text;html=1;align=center;verticalAlign=middle;resizable=0;points=[];autosize=1;strokeColor=none;fillColor=none;fontStyle=1;fontColor=#FFFFFF;" vertex="1" parent="1">
          <mxGeometry x="358.62" y="934" width="58" height="26" as="geometry" />
        </mxCell>
        <mxCell id="s9EOSlfGhYIO4utFcJ4W-51" style="edgeStyle=orthogonalEdgeStyle;rounded=0;orthogonalLoop=1;jettySize=auto;html=1;startArrow=classicThin;startFill=1;endArrow=none;endFill=0;" edge="1" parent="1" source="s9EOSlfGhYIO4utFcJ4W-49">
          <mxGeometry relative="1" as="geometry">
            <mxPoint x="328.0899999999997" y="948.5" as="targetPoint" />
          </mxGeometry>
        </mxCell>
        <mxCell id="s9EOSlfGhYIO4utFcJ4W-49" value="Windows Server" style="outlineConnect=0;dashed=0;verticalLabelPosition=bottom;verticalAlign=top;align=center;html=1;shape=mxgraph.aws3.traditional_server;fillColor=#7D7C7C;gradientColor=none;" vertex="1" parent="1">
          <mxGeometry x="105.53" y="917" width="46.5" height="63" as="geometry" />
        </mxCell>
        <mxCell id="s9EOSlfGhYIO4utFcJ4W-56" style="edgeStyle=orthogonalEdgeStyle;rounded=0;orthogonalLoop=1;jettySize=auto;html=1;entryX=1;entryY=0.5;entryDx=0;entryDy=0;startArrow=classicThin;startFill=1;endArrow=none;endFill=0;" edge="1" source="s9EOSlfGhYIO4utFcJ4W-58" target="s9EOSlfGhYIO4utFcJ4W-59" parent="1">
          <mxGeometry relative="1" as="geometry" />
        </mxCell>
        <mxCell id="s9EOSlfGhYIO4utFcJ4W-57" value="Mythic Agent" style="edgeLabel;html=1;align=center;verticalAlign=middle;resizable=0;points=[];" vertex="1" connectable="0" parent="s9EOSlfGhYIO4utFcJ4W-56">
          <mxGeometry x="-0.104" y="1" relative="1" as="geometry">
            <mxPoint as="offset" />
          </mxGeometry>
        </mxCell>
        <mxCell id="s9EOSlfGhYIO4utFcJ4W-58" value="Mythic C2" style="outlineConnect=0;dashed=0;verticalLabelPosition=bottom;verticalAlign=top;align=center;html=1;shape=mxgraph.aws3.traditional_server;fillColor=#f8cecc;strokeColor=#b85450;" vertex="1" parent="1">
          <mxGeometry x="620.53" y="1024.5" width="46.5" height="63" as="geometry" />
        </mxCell>
        <mxCell id="s9EOSlfGhYIO4utFcJ4W-59" value="" style="image;aspect=fixed;perimeter=ellipsePerimeter;html=1;align=center;shadow=0;dashed=0;spacingTop=3;image=img/lib/active_directory/internet_cloud.svg;" vertex="1" parent="1">
          <mxGeometry x="331.84000000000003" y="1020" width="119.05" height="75" as="geometry" />
        </mxCell>
        <mxCell id="s9EOSlfGhYIO4utFcJ4W-60" value="Internet" style="text;html=1;align=center;verticalAlign=middle;resizable=0;points=[];autosize=1;strokeColor=none;fillColor=none;fontStyle=1;fontColor=#FFFFFF;" vertex="1" parent="1">
          <mxGeometry x="362.37" y="1043" width="58" height="26" as="geometry" />
        </mxCell>
        <mxCell id="s9EOSlfGhYIO4utFcJ4W-61" style="edgeStyle=orthogonalEdgeStyle;rounded=0;orthogonalLoop=1;jettySize=auto;html=1;startArrow=none;startFill=0;endArrow=classicThin;endFill=1;" edge="1" target="s9EOSlfGhYIO4utFcJ4W-59" parent="1">
          <mxGeometry relative="1" as="geometry">
            <mxPoint x="155.53" y="1058" as="sourcePoint" />
          </mxGeometry>
        </mxCell>
        <mxCell id="s9EOSlfGhYIO4utFcJ4W-73" value="&lt;br&gt;&lt;div&gt;&lt;br&gt;&lt;/div&gt;&lt;div&gt;Execute Mythic Agent&lt;br&gt;&lt;/div&gt;" style="edgeLabel;html=1;align=center;verticalAlign=middle;resizable=0;points=[];" vertex="1" connectable="0" parent="s9EOSlfGhYIO4utFcJ4W-61">
          <mxGeometry x="0.316" y="-1" relative="1" as="geometry">
            <mxPoint x="-33" y="-11" as="offset" />
          </mxGeometry>
        </mxCell>
        <mxCell id="s9EOSlfGhYIO4utFcJ4W-63" value="Windows Server" style="outlineConnect=0;dashed=0;verticalLabelPosition=bottom;verticalAlign=top;align=center;html=1;shape=mxgraph.aws3.traditional_server;fillColor=#7D7C7C;gradientColor=none;" vertex="1" parent="1">
          <mxGeometry x="109.03" y="1026" width="46.5" height="63" as="geometry" />
        </mxCell>
        <mxCell id="s9EOSlfGhYIO4utFcJ4W-65" style="edgeStyle=orthogonalEdgeStyle;rounded=0;orthogonalLoop=1;jettySize=auto;html=1;entryX=1;entryY=0.5;entryDx=0;entryDy=0;startArrow=classic;startFill=1;endArrow=none;endFill=0;" edge="1" source="s9EOSlfGhYIO4utFcJ4W-67" target="s9EOSlfGhYIO4utFcJ4W-68" parent="1">
          <mxGeometry relative="1" as="geometry" />
        </mxCell>
        <mxCell id="s9EOSlfGhYIO4utFcJ4W-66" value="Mythic Agent" style="edgeLabel;html=1;align=center;verticalAlign=middle;resizable=0;points=[];" vertex="1" connectable="0" parent="s9EOSlfGhYIO4utFcJ4W-65">
          <mxGeometry x="-0.104" y="1" relative="1" as="geometry">
            <mxPoint as="offset" />
          </mxGeometry>
        </mxCell>
        <mxCell id="s9EOSlfGhYIO4utFcJ4W-67" value="Mythic C2" style="outlineConnect=0;dashed=0;verticalLabelPosition=bottom;verticalAlign=top;align=center;html=1;shape=mxgraph.aws3.traditional_server;fillColor=#f8cecc;strokeColor=#b85450;" vertex="1" parent="1">
          <mxGeometry x="627.53" y="814.5" width="46.5" height="63" as="geometry" />
        </mxCell>
        <mxCell id="s9EOSlfGhYIO4utFcJ4W-68" value="" style="image;aspect=fixed;perimeter=ellipsePerimeter;html=1;align=center;shadow=0;dashed=0;spacingTop=3;image=img/lib/active_directory/internet_cloud.svg;" vertex="1" parent="1">
          <mxGeometry x="326.09000000000003" y="810" width="119.05" height="75" as="geometry" />
        </mxCell>
        <mxCell id="s9EOSlfGhYIO4utFcJ4W-69" value="Internet" style="text;html=1;align=center;verticalAlign=middle;resizable=0;points=[];autosize=1;strokeColor=none;fillColor=none;fontStyle=1;fontColor=#FFFFFF;" vertex="1" parent="1">
          <mxGeometry x="356.62" y="833" width="58" height="26" as="geometry" />
        </mxCell>
        <mxCell id="s9EOSlfGhYIO4utFcJ4W-70" style="edgeStyle=orthogonalEdgeStyle;rounded=0;orthogonalLoop=1;jettySize=auto;html=1;startArrow=none;startFill=0;endArrow=classicThin;endFill=1;" edge="1" source="s9EOSlfGhYIO4utFcJ4W-72" target="s9EOSlfGhYIO4utFcJ4W-68" parent="1">
          <mxGeometry relative="1" as="geometry" />
        </mxCell>
        <mxCell id="s9EOSlfGhYIO4utFcJ4W-71" value="Powershell IEX" style="edgeLabel;html=1;align=center;verticalAlign=middle;resizable=0;points=[];" vertex="1" connectable="0" parent="s9EOSlfGhYIO4utFcJ4W-70">
          <mxGeometry x="0.1331" y="-2" relative="1" as="geometry">
            <mxPoint as="offset" />
          </mxGeometry>
        </mxCell>
        <mxCell id="s9EOSlfGhYIO4utFcJ4W-72" value="Windows Server" style="outlineConnect=0;dashed=0;verticalLabelPosition=bottom;verticalAlign=top;align=center;html=1;shape=mxgraph.aws3.traditional_server;fillColor=#7D7C7C;gradientColor=none;" vertex="1" parent="1">
          <mxGeometry x="103.53" y="816" width="46.5" height="63" as="geometry" />
        </mxCell>
        <mxCell id="s9EOSlfGhYIO4utFcJ4W-77" value="&lt;div&gt;&lt;br&gt;&lt;/div&gt;&lt;div&gt;Phase 5 &lt;br&gt;Command and control&lt;/div&gt;&lt;div&gt;&lt;br&gt;&lt;/div&gt;" style="text;html=1;align=center;verticalAlign=middle;resizable=0;points=[];autosize=1;strokeColor=none;fillColor=none;" vertex="1" parent="1">
          <mxGeometry x="330.35999999999996" y="1127" width="134" height="70" as="geometry" />
        </mxCell>
        <mxCell id="s9EOSlfGhYIO4utFcJ4W-105" value="Windows Server" style="outlineConnect=0;dashed=0;verticalLabelPosition=bottom;verticalAlign=top;align=center;html=1;shape=mxgraph.aws3.traditional_server;fillColor=#7D7C7C;gradientColor=none;" vertex="1" parent="1">
          <mxGeometry x="630.75" y="627" width="46.5" height="63" as="geometry" />
        </mxCell>
        <mxCell id="s9EOSlfGhYIO4utFcJ4W-106" style="edgeStyle=orthogonalEdgeStyle;rounded=0;orthogonalLoop=1;jettySize=auto;html=1;" edge="1" parent="1" source="s9EOSlfGhYIO4utFcJ4W-108" target="s9EOSlfGhYIO4utFcJ4W-110">
          <mxGeometry relative="1" as="geometry" />
        </mxCell>
        <mxCell id="s9EOSlfGhYIO4utFcJ4W-107" value="RDP Brute Force" style="edgeLabel;html=1;align=center;verticalAlign=middle;resizable=0;points=[];" vertex="1" connectable="0" parent="s9EOSlfGhYIO4utFcJ4W-106">
          <mxGeometry x="0.0184" y="4" relative="1" as="geometry">
            <mxPoint y="1" as="offset" />
          </mxGeometry>
        </mxCell>
        <mxCell id="s9EOSlfGhYIO4utFcJ4W-108" value="Attacker Laptop &lt;br&gt;Kali Linux" style="verticalLabelPosition=bottom;html=1;verticalAlign=top;align=center;strokeColor=#b85450;fillColor=#f8cecc;shape=mxgraph.azure.computer;pointerEvents=1;" vertex="1" parent="1">
          <mxGeometry x="99.75" y="638" width="50" height="45" as="geometry" />
        </mxCell>
        <mxCell id="s9EOSlfGhYIO4utFcJ4W-109" value="f" style="edgeStyle=orthogonalEdgeStyle;rounded=0;orthogonalLoop=1;jettySize=auto;html=1;" edge="1" parent="1" source="s9EOSlfGhYIO4utFcJ4W-110" target="s9EOSlfGhYIO4utFcJ4W-105">
          <mxGeometry relative="1" as="geometry" />
        </mxCell>
        <mxCell id="s9EOSlfGhYIO4utFcJ4W-112" value="Disable Defender" style="edgeLabel;html=1;align=center;verticalAlign=middle;resizable=0;points=[];" vertex="1" connectable="0" parent="s9EOSlfGhYIO4utFcJ4W-109">
          <mxGeometry x="0.0267" y="2" relative="1" as="geometry">
            <mxPoint y="1" as="offset" />
          </mxGeometry>
        </mxCell>
        <mxCell id="s9EOSlfGhYIO4utFcJ4W-110" value="" style="image;aspect=fixed;perimeter=ellipsePerimeter;html=1;align=center;shadow=0;dashed=0;spacingTop=3;image=img/lib/active_directory/internet_cloud.svg;" vertex="1" parent="1">
          <mxGeometry x="332.75" y="621" width="119.05" height="75" as="geometry" />
        </mxCell>
        <mxCell id="s9EOSlfGhYIO4utFcJ4W-111" value="Internet" style="text;html=1;align=center;verticalAlign=middle;resizable=0;points=[];autosize=1;strokeColor=none;fillColor=none;fontStyle=1;fontColor=#FFFFFF;" vertex="1" parent="1">
          <mxGeometry x="363.28" y="644" width="58" height="26" as="geometry" />
        </mxCell>
        <mxCell id="s9EOSlfGhYIO4utFcJ4W-114" value="Phase 4&lt;br&gt;Execution" style="text;html=1;align=center;verticalAlign=middle;resizable=0;points=[];autosize=1;strokeColor=none;fillColor=none;" vertex="1" parent="1">
          <mxGeometry x="359" y="737" width="70" height="41" as="geometry" />
        </mxCell>
        <mxCell id="s9EOSlfGhYIO4utFcJ4W-121" style="edgeStyle=orthogonalEdgeStyle;rounded=0;orthogonalLoop=1;jettySize=auto;html=1;entryX=1;entryY=0.5;entryDx=0;entryDy=0;startArrow=classicThin;startFill=1;endArrow=none;endFill=0;" edge="1" source="s9EOSlfGhYIO4utFcJ4W-123" target="s9EOSlfGhYIO4utFcJ4W-124" parent="1">
          <mxGeometry relative="1" as="geometry" />
        </mxCell>
        <mxCell id="s9EOSlfGhYIO4utFcJ4W-123" value="Mythic C2" style="outlineConnect=0;dashed=0;verticalLabelPosition=bottom;verticalAlign=top;align=center;html=1;shape=mxgraph.aws3.traditional_server;fillColor=#f8cecc;strokeColor=#b85450;" vertex="1" parent="1">
          <mxGeometry x="630.5" y="1226.5" width="46.5" height="63" as="geometry" />
        </mxCell>
        <mxCell id="s9EOSlfGhYIO4utFcJ4W-124" value="" style="image;aspect=fixed;perimeter=ellipsePerimeter;html=1;align=center;shadow=0;dashed=0;spacingTop=3;image=img/lib/active_directory/internet_cloud.svg;" vertex="1" parent="1">
          <mxGeometry x="341.81000000000006" y="1222" width="119.05" height="75" as="geometry" />
        </mxCell>
        <mxCell id="s9EOSlfGhYIO4utFcJ4W-125" value="Internet" style="text;html=1;align=center;verticalAlign=middle;resizable=0;points=[];autosize=1;strokeColor=none;fillColor=none;fontStyle=1;fontColor=#FFFFFF;" vertex="1" parent="1">
          <mxGeometry x="372.34000000000003" y="1245" width="58" height="26" as="geometry" />
        </mxCell>
        <mxCell id="s9EOSlfGhYIO4utFcJ4W-126" style="edgeStyle=orthogonalEdgeStyle;rounded=0;orthogonalLoop=1;jettySize=auto;html=1;startArrow=none;startFill=0;endArrow=classicThin;endFill=1;" edge="1" target="s9EOSlfGhYIO4utFcJ4W-124" parent="1">
          <mxGeometry relative="1" as="geometry">
            <mxPoint x="165.5" y="1260" as="sourcePoint" />
          </mxGeometry>
        </mxCell>
        <mxCell id="s9EOSlfGhYIO4utFcJ4W-127" value="Establish C2" style="edgeLabel;html=1;align=center;verticalAlign=middle;resizable=0;points=[];" vertex="1" connectable="0" parent="s9EOSlfGhYIO4utFcJ4W-126">
          <mxGeometry x="0.316" y="-1" relative="1" as="geometry">
            <mxPoint x="-35" y="-1" as="offset" />
          </mxGeometry>
        </mxCell>
        <mxCell id="s9EOSlfGhYIO4utFcJ4W-128" value="Windows Server" style="outlineConnect=0;dashed=0;verticalLabelPosition=bottom;verticalAlign=top;align=center;html=1;shape=mxgraph.aws3.traditional_server;fillColor=#7D7C7C;gradientColor=none;" vertex="1" parent="1">
          <mxGeometry x="119" y="1228" width="46.5" height="63" as="geometry" />
        </mxCell>
        <mxCell id="s9EOSlfGhYIO4utFcJ4W-129" value="Create fake password file&lt;br&gt;called passwords.txt" style="text;html=1;align=center;verticalAlign=middle;resizable=0;points=[];autosize=1;strokeColor=none;fillColor=none;" vertex="1" parent="1">
          <mxGeometry x="305.36" y="1437" width="159" height="41" as="geometry" />
        </mxCell>
        <mxCell id="s9EOSlfGhYIO4utFcJ4W-130" value="Phase 6&lt;br&gt;Exfiltration" style="text;html=1;align=center;verticalAlign=middle;resizable=0;points=[];autosize=1;strokeColor=none;fillColor=none;" vertex="1" parent="1">
          <mxGeometry x="346" y="1367" width="74" height="41" as="geometry" />
        </mxCell>
        <mxCell id="s9EOSlfGhYIO4utFcJ4W-142" style="rounded=0;orthogonalLoop=1;jettySize=auto;html=1;entryX=1;entryY=0.5;entryDx=0;entryDy=0;" edge="1" parent="1">
          <mxGeometry relative="1" as="geometry">
            <mxPoint x="621.5100000000002" y="1523" as="sourcePoint" />
            <mxPoint x="451.8700000000049" y="1524.5" as="targetPoint" />
          </mxGeometry>
        </mxCell>
        <mxCell id="s9EOSlfGhYIO4utFcJ4W-143" value="Download Passwords.txt" style="edgeLabel;html=1;align=center;verticalAlign=middle;resizable=0;points=[];" vertex="1" connectable="0" parent="s9EOSlfGhYIO4utFcJ4W-142">
          <mxGeometry x="-0.104" y="1" relative="1" as="geometry">
            <mxPoint as="offset" />
          </mxGeometry>
        </mxCell>
        <mxCell id="s9EOSlfGhYIO4utFcJ4W-144" value="Mythic C2" style="outlineConnect=0;dashed=0;verticalLabelPosition=bottom;verticalAlign=top;align=center;html=1;shape=mxgraph.aws3.traditional_server;fillColor=#f8cecc;strokeColor=#b85450;" vertex="1" parent="1">
          <mxGeometry x="625.26" y="1483" width="46.5" height="63" as="geometry" />
        </mxCell>
        <mxCell id="s9EOSlfGhYIO4utFcJ4W-145" value="" style="image;aspect=fixed;perimeter=ellipsePerimeter;html=1;align=center;shadow=0;dashed=0;spacingTop=3;image=img/lib/active_directory/internet_cloud.svg;" vertex="1" parent="1">
          <mxGeometry x="336.21000000000004" y="1485.5" width="119.05" height="75" as="geometry" />
        </mxCell>
        <mxCell id="s9EOSlfGhYIO4utFcJ4W-146" value="Internet" style="text;html=1;align=center;verticalAlign=middle;resizable=0;points=[];autosize=1;strokeColor=none;fillColor=none;fontStyle=1;fontColor=#FFFFFF;" vertex="1" parent="1">
          <mxGeometry x="363.35" y="1510" width="58" height="26" as="geometry" />
        </mxCell>
        <mxCell id="s9EOSlfGhYIO4utFcJ4W-147" style="edgeStyle=orthogonalEdgeStyle;rounded=0;orthogonalLoop=1;jettySize=auto;html=1;startArrow=classicThin;startFill=1;endArrow=none;endFill=0;" edge="1" source="s9EOSlfGhYIO4utFcJ4W-148" parent="1">
          <mxGeometry relative="1" as="geometry">
            <mxPoint x="332.8199999999997" y="1524.5" as="targetPoint" />
          </mxGeometry>
        </mxCell>
        <mxCell id="s9EOSlfGhYIO4utFcJ4W-148" value="Windows Server" style="outlineConnect=0;dashed=0;verticalLabelPosition=bottom;verticalAlign=top;align=center;html=1;shape=mxgraph.aws3.traditional_server;fillColor=#7D7C7C;gradientColor=none;" vertex="1" parent="1">
          <mxGeometry x="110.26" y="1493" width="46.5" height="63" as="geometry" />
        </mxCell>
      </root>
    </mxGraphModel>
  </diagram>
</mxfile>
